<?xml version="1.0" encoding="utf-8"?>
<!-- Generator: Adobe Illustrator 16.0.4, SVG Export Plug-In . SVG Version: 6.00 Build 0)  -->
<!DOCTYPE svg PUBLIC "-//W3C//DTD SVG 1.1//EN" "http://www.w3.org/Graphics/SVG/1.1/DTD/svg11.dtd">
<svg version="1.1" id="Layer_1" xmlns="http://www.w3.org/2000/svg" xmlns:xlink="http://www.w3.org/1999/xlink" x="0px" y="0px"
	 width="161.667px" height="170.333px" viewBox="0 0 161.667 170.333" enable-background="new 0 0 161.667 170.333"
	 xml:space="preserve">
<g display="none">
	<circle display="inline" fill="#FFFFFF" cx="78.835" cy="86.772" r="82.644"/>
	
		<circle display="inline" fill="none" stroke="#961B1E" stroke-width="3" stroke-miterlimit="10" stroke-dasharray="86.5477,86.5477" cx="78.835" cy="86.772" r="82.644"/>
</g>
<path d="M161.15,128.681l-8.93-33.115l-17.487,29.507l10.371-2.825c-5.669,17.479-16.992,32.497-31.742,41.8
	c-1.401,0.884-1.82,2.736-0.937,4.138c0.57,0.904,1.544,1.399,2.54,1.399c0.547,0,1.101-0.149,1.598-0.463
	c16.303-10.282,28.721-26.985,34.669-46.353L161.15,128.681z M116.886,23.106c-15.982-10.15-34.396-13.67-52.382-10.157
	l0.077-11.643l-24.034,24.47l34.299,0.138l-7.559-7.386c15.951-2.694,32.202,0.637,46.382,9.643
	c0.499,0.317,1.056,0.468,1.605,0.468c0.992,0,1.964-0.492,2.535-1.392C118.699,25.848,118.285,23.994,116.886,23.106z
	 M41.253,166.695l-14.805-30.938l-3.387,10.098C12.637,131.888,6.754,114.006,6.779,95.817c0.002-1.656-1.339-3.002-2.996-3.004
	c-0.001,0-0.002,0-0.004,0c-1.655,0-2.998,1.341-3,2.996c-0.027,20.032,6.659,39.74,18.459,54.918l-10.476,4.98L41.253,166.695z
	 M62.895,121.471c-0.555-5.752-0.278-10.648,0.83-14.689c1.105-4.039,2.628-7.525,4.565-10.459c1.935-2.932,4.15-5.479,6.64-7.637
	c2.49-2.156,4.814-4.232,6.973-6.224c2.158-1.992,3.955-4.067,5.395-6.225c1.438-2.158,2.158-4.731,2.158-7.72
	c0-3.872-1.079-6.972-3.237-9.296c-2.157-2.323-6.004-3.486-11.537-3.486c-1.771,0-3.652,0.195-5.644,0.582
	c-1.992,0.389-3.984,0.941-5.976,1.659c-1.992,0.722-3.901,1.552-5.727,2.49c-1.826,0.941-3.46,1.909-4.897,2.905l-8.3-15.936
	c4.205-2.876,9.047-5.255,14.525-7.138c5.478-1.88,12.09-2.822,19.837-2.822c10.401,0,18.534,2.519,24.401,7.553
	c5.865,5.037,8.799,11.815,8.799,20.335c0,5.644-0.748,10.32-2.241,14.026c-1.494,3.709-3.349,6.864-5.562,9.461
	c-2.215,2.602-4.647,4.898-7.304,6.891c-2.655,1.992-5.091,4.123-7.304,6.391c-2.215,2.27-4.096,4.896-5.645,7.885
	c-1.551,2.988-2.324,6.807-2.324,11.453H62.895z M59.574,145.043c0-3.871,1.217-6.943,3.652-9.213
	c2.433-2.266,5.644-3.402,9.628-3.402c4.204,0,7.524,1.137,9.959,3.402c2.434,2.27,3.652,5.342,3.652,9.213
	c0,3.875-1.219,6.973-3.652,9.297c-2.435,2.324-5.755,3.486-9.959,3.486c-3.984,0-7.195-1.162-9.628-3.486
	C60.791,152.016,59.574,148.918,59.574,145.043z"/>
</svg>
