<?xml version="1.0" encoding="utf-8"?>
<!-- Generator: Adobe Illustrator 16.0.4, SVG Export Plug-In . SVG Version: 6.00 Build 0)  -->
<!DOCTYPE svg PUBLIC "-//W3C//DTD SVG 1.1//EN" "http://www.w3.org/Graphics/SVG/1.1/DTD/svg11.dtd">
<svg version="1.1" xmlns="http://www.w3.org/2000/svg" xmlns:xlink="http://www.w3.org/1999/xlink" x="0px" y="0px" width="210px"
	 height="210px" viewBox="0 0 210 210" enable-background="new 0 0 210 210" xml:space="preserve">
<g id="Layer_1">
</g>
<g id="Layer_2">
	<polygon points="-51.123,-1709.586 -50.996,-1557.1 102.775,-1468.466 256.418,-1557.318 256.293,-1734.804 153.352,-1675.273 
		153.393,-1616.702 102.689,-1587.382 51.945,-1616.631 51.904,-1650.201 	"/>
	<polygon points="153.354,-1865.26 256.293,-1924.791 102.586,-2013.533 -51.121,-1924.791 -51.121,-1747.304 102.586,-1658.562 
		256.293,-1747.304 153.31,-1806.762 102.586,-1777.477 51.862,-1806.762 51.862,-1865.333 102.586,-1894.618 153.31,-1865.333 	"/>
	<text transform="matrix(1 0 0 1 153.2959 -1565.4048)"><tspan x="0" y="0" fill="#FFFFFF" font-family="'Geomanist-Regular'" font-size="200.0397">a</tspan><tspan x="102.02" y="0" font-family="'Geomanist-Regular'" font-size="200.0397" letter-spacing="-12">l</tspan><tspan x="133.024" y="0" font-family="'Geomanist-Regular'" font-size="200.0397" letter-spacing="-8">D</tspan><tspan x="252.447" y="0" font-family="'Geomanist-Regular'" font-size="200.0397" letter-spacing="-4">e</tspan><tspan x="361.466" y="0" font-family="'Geomanist-Regular'" font-size="200.0397" letter-spacing="-8">si</tspan><tspan x="471.886" y="0" font-family="'Geomanist-Regular'" font-size="200.0397" letter-spacing="-15">g</tspan><tspan x="578.105" y="0" font-family="'Geomanist-Regular'" font-size="200.0397">n</tspan></text>
	<text transform="matrix(1 0 0 1 225.6846 -327)" font-family="'PTSans-Regular'" font-size="130">C</text>
	<text transform="matrix(1 0 0 1 299.3945 -327)" font-family="'PTSans-Regular'" font-size="130" letter-spacing="-2">S</text>
	<text transform="matrix(0.7 0 0 0.7 365.8232 -327)" font-family="'PTSans-Regular'" font-size="150" letter-spacing="2.857">al</text>
	<text transform="matrix(1 0 0 1 485.7324 -327)" font-family="'PTSans-Regular'" font-size="130" letter-spacing="-2">D</text>
	<text transform="matrix(0.7 0 0 0.7 568.1514 -327)" font-family="'PTSans-Regular'" font-size="150" letter-spacing="2.857">esign</text>
	<text transform="matrix(1 0 0 1 1225.2793 -1594.543)"><tspan x="0" y="0" font-family="'Geomanist-Regular'" font-size="163.3562" letter-spacing="16">a</tspan><tspan x="99.646" y="0" font-family="'Geomanist-Regular'" font-size="163.3562" letter-spacing="-9">l</tspan><tspan x="124.966" y="0" font-family="'Geomanist-Regular'" font-size="163.3562" letter-spacing="-6">D</tspan><tspan x="222.488" y="0" font-family="'Geomanist-Regular'" font-size="163.3562" letter-spacing="-3">e</tspan><tspan x="311.516" y="0" font-family="'Geomanist-Regular'" font-size="163.3562" letter-spacing="-6">si</tspan><tspan x="401.687" y="0" font-family="'Geomanist-Regular'" font-size="163.3562" letter-spacing="-12">g</tspan><tspan x="488.428" y="0" font-family="'Geomanist-Regular'" font-size="163.3562">n</tspan></text>
	<path d="M1183.246-1987.677l145.962,80.324l0.117,332.607l-145.898,80.423l-146.139-80.225v-332.806L1183.246-1987.677z
		 M1058.749-1715.554l0.104,123.516l124.557,71.795l124.453-71.972l-0.103-131.834l-83.383,48.221l0.032,35.512l-41.068,23.75
		l-41.105-23.692l-0.032-27.192L1058.749-1715.554z M1224.378-1841.652l83.382-48.221l-124.504-71.883l-124.506,71.883v143.767
		l124.506,71.883l124.504-71.883l-83.418-48.162l-41.086,23.722l-41.088-23.722v-47.443l41.088-23.721l41.086,23.721
		L1224.378-1841.652z"/>
	<path d="M105.256-476.626C47.955-476.626,1.5-430.169,1.5-372.868c0,57.304,46.455,103.758,103.756,103.758
		c57.307,0,103.758-46.454,103.758-103.758C209.014-430.169,162.562-476.626,105.256-476.626z M145.025-374.318l-0.041,48.502
		l-39.295,22.726l-39.327-22.672l-0.036-39l26.352,15.188l0.012,8.587l12.978,7.482l12.969-7.499l-0.027-18.179l-12.969,7.471
		l-39.31-22.694v-45.396l39.31-22.696l39.312,22.696l-26.326,15.229l-0.011-0.021l-12.975-7.492l-12.974,7.492v14.981l12.974,7.488
		l12.975-7.488l26.337,15.207L145.025-374.318z"/>
	<text transform="matrix(1 0 0 1 225.6846 -1017)" font-family="'DroidSans'" font-size="130">C</text>
	<text transform="matrix(1 0 0 1 303.5586 -1017)" font-family="'DroidSans'" font-size="130" letter-spacing="-2">S</text>
	<text transform="matrix(0.7 0 0 0.7 368.4336 -1017)" font-family="'DroidSans'" font-size="150" letter-spacing="2.857">al</text>
	<text transform="matrix(1 0 0 1 488.041 -1017)" font-family="'DroidSans'" font-size="130" letter-spacing="-2">D</text>
	<text transform="matrix(0.7 0 0 0.7 574.3721 -1017)" font-family="'DroidSans'" font-size="150" letter-spacing="2.857">esign</text>
	<path d="M105.256-1166.626c-57.301,0-103.756,46.457-103.756,103.758c0,57.304,46.455,103.758,103.756,103.758
		c57.307,0,103.758-46.454,103.758-103.758C209.014-1120.169,162.562-1166.626,105.256-1166.626z M145.025-1064.318l-0.041,48.502
		l-39.295,22.726l-39.327-22.672l-0.036-39l26.352,15.188l0.012,8.587l12.978,7.482l12.969-7.499l-0.027-18.179l-12.969,7.471
		l-39.31-22.694v-45.396l39.31-22.696l39.312,22.696l-26.326,15.229l-0.011-0.021l-12.975-7.492l-12.974,7.492v14.981l12.974,7.488
		l12.975-7.488l26.337,15.207L145.025-1064.318z"/>
	<rect id="_x3C_Slice_x3E_" x="1" y="-477" fill="none" width="208" height="208"/>
	<rect id="_x3C_Slice_x3E__1_" x="232" y="-421" fill="none" width="601" height="96"/>
	<path d="M105.256,1.374C47.955,1.374,1.5,47.831,1.5,105.132c0,57.304,46.455,103.758,103.756,103.758
		c57.307,0,103.758-46.454,103.758-103.758C209.014,47.831,162.562,1.374,105.256,1.374z M145.025,103.682l-0.041,48.502
		l-39.295,22.726l-39.327-22.672l-0.036-39l26.352,15.188l0.012,8.587l12.978,7.482l12.969-7.499l-0.027-18.179l-12.969,7.471
		l-39.31-22.694V58.198l39.31-22.696l39.312,22.696l-26.326,15.229l-0.011-0.021l-12.975-7.492l-12.974,7.492v14.981l12.974,7.488
		l12.975-7.488l26.337,15.207L145.025,103.682z"/>
	<rect id="_x3C_Slice_x3E__3_" x="1" y="1" fill="none" width="208" height="208"/>
	<rect id="_x3C_Slice_x3E__2_" x="232" y="57" fill="none" width="601" height="96"/>
</g>
</svg>
